<svg xmlns="http://www.w3.org/2000/svg" width="128" height="128" viewBox="0 0 16 16" shape-rendering="crispEdges"><rect x="3" y="2" width="10" height="2" fill="#c2410c"/><rect x="2" y="3" width="1" height="4" fill="#c2410c"/><rect x="13" y="3" width="1" height="4" fill="#c2410c"/><rect x="3" y="4" width="10" height="7" fill="#f6c79c"/><rect x="3" y="10" width="10" height="1" fill="#e0a878"/><rect x="2" y="6" width="1" height="2" fill="#f6c79c"/><rect x="13" y="6" width="1" height="2" fill="#f6c79c"/><rect x="6" y="11" width="4" height="1" fill="#e0a878"/><rect x="3" y="12" width="10" height="4" fill="#ec4899"/><rect x="3" y="12" width="10" height="1" fill="rgba(0,0,0,0.18)"/><rect x="4" y="6" width="2" height="1" fill="#1a1a1a"/><rect x="9" y="6" width="2" height="1" fill="#1a1a1a"/><rect x="5" y="9" width="1" height="1" fill="#1a1a1a"/><rect x="6" y="10" width="4" height="1" fill="#1a1a1a"/><rect x="10" y="9" width="1" height="1" fill="#1a1a1a"/></svg>
